# xmcd
#
# Track frame offsets:
#	150
#	17375
#	70550
#	105370
#
# Disc length: 2234 seconds
#
# Revision: 1
# Processed by: cddbd v1.5.1PL2 Copyright (c) Steve Scherf et al.
# Submitted via: dBpowerAMP V4.0
#
DISCID=1e08b804
DTITLE=Drum Club - Sound System Single
DYEAR=1993
DGENRE=Electronic
TTITLE0=Sound System (Feedback Edit)
TTITLE1=Sound System (Underworld Mix)
TTITLE2=Sound System (Dub Me Crazy)
TTITLE3=Sound System (Cocodeepdub)
EXTD=
EXTT0=
EXTT1=
EXTT2=
EXTT3=
PLAYORDER=
